<svg width="78" height="99" viewBox="0 0 78 99" fill="none" xmlns="http://www.w3.org/2000/svg">
<g clip-path="url(#clip0_0_1)">
<path d="M13.1293 47.1469C25.7023 48.8105 38.3918 49.072 51.0231 47.9269C51.8795 47.8502 51.8885 46.4978 51.0231 46.5744C38.3918 47.7195 25.7023 47.458 13.1293 45.7945C12.2773 45.6817 12.2818 47.0387 13.1293 47.1469Z" fill="#727272"/>
<path d="M16.0304 92.8206C21.465 93.5149 26.9354 93.853 32.4147 93.7764C37.235 93.7088 42.9251 93.9206 47.4449 92.0136C48.2296 91.68 47.8843 90.3726 47.0862 90.7107C42.4498 92.6673 36.5086 92.4013 31.5493 92.4329C26.3569 92.469 21.178 92.1263 16.0259 91.4681C15.174 91.3599 15.1785 92.7124 16.0304 92.8206Z" fill="#727272"/>
<path d="M12.6047 46.1056C6.33164 51.9574 3.40811 60.681 4.09864 69.1882C4.45287 73.5838 5.69043 77.8577 7.55127 81.843C9.2462 85.4767 11.7438 90.6838 15.4923 92.5728C16.2636 92.9605 16.9451 91.7974 16.1694 91.4051C12.6809 89.6469 10.3089 84.5841 8.71261 81.1623C6.85626 77.1724 5.64111 72.8399 5.39001 68.4353C4.94162 60.4962 7.71269 52.5119 13.5597 47.0614C14.1965 46.4708 13.2414 45.515 12.6047 46.1056Z" fill="#727272"/>
<path d="M50.5478 47.742C57.1661 51.9122 57.7893 60.9063 57.6279 67.9889C57.4486 75.8874 56.4755 88.4025 47.0862 90.7108C46.2477 90.9181 46.6019 92.221 47.4449 92.0137C57.2468 89.6062 58.6547 77.1858 58.9507 68.8274C59.2242 61.0055 58.5337 51.1774 51.2248 46.5744C50.4895 46.1145 49.8169 47.2822 50.5478 47.742Z" fill="#727272"/>
<path d="M17.5774 47.1559C12.6406 52.4983 10.4614 61.4202 11.2954 68.5749C11.7797 72.7361 13.089 76.8657 14.062 80.9277C15.0395 84.9987 16.0484 89.0381 18.2634 92.6313C18.7208 93.3706 19.8821 92.6899 19.4248 91.9505C17.3442 88.5783 16.3757 84.8093 15.4565 80.9908C14.5687 77.312 13.5329 73.6287 12.8468 69.9094C11.5465 62.8268 13.5822 53.4676 18.528 48.1117C19.1154 47.4715 18.1648 46.5157 17.5774 47.1559Z" fill="#727272"/>
<path d="M24.2405 47.7196C20.5637 54.2296 18.6311 61.6232 18.7297 69.116C18.7791 72.7137 19.2902 76.3158 20.2677 79.7782C21.4829 84.0746 23.3303 88.1501 24.1374 92.5638C24.2943 93.4203 25.5902 93.0552 25.4332 92.2031C24.7292 88.3395 23.2361 84.7418 22.0478 81.018C20.8955 77.4023 20.2049 73.6739 20.0884 69.8734C19.8552 62.3581 21.7116 54.9329 25.4018 48.4003C25.8323 47.6429 24.6709 46.9622 24.2405 47.7196Z" fill="#727272"/>
<path d="M28.2043 49.0134C29.4822 56.5243 27.9308 64.0486 28.0608 71.5911C28.1191 75.0354 28.8858 78.2408 29.3342 81.6311C29.8006 85.1521 29.0024 88.7722 28.5675 92.2662C28.4599 93.1273 29.8051 93.1182 29.9127 92.2662C30.3521 88.7407 31.1458 85.0934 30.6794 81.5409C30.2041 77.9072 29.4015 74.4628 29.397 70.766C29.388 63.3679 30.7512 56.0239 29.5001 48.6573C29.3522 47.8007 28.0563 48.1614 28.2043 49.0134Z" fill="#727272"/>
<path d="M33.2487 48.3868C35.6118 55.1718 35.8987 62.331 36.1364 69.4496C36.3965 77.1814 36.0108 84.7914 34.576 92.4014C34.4146 93.2535 35.7104 93.6187 35.8718 92.7621C37.3291 85.0348 37.7461 77.2986 37.4816 69.4496C37.2394 62.2138 36.9435 54.9193 34.5446 48.0261C34.2621 47.2146 32.9618 47.5663 33.2487 48.3868Z" fill="#727272"/>
<path d="M38.9075 48.4184C39.4052 49.9467 40.4813 50.9656 41.3064 52.309C42.248 53.8419 42.7637 55.5776 43.0417 57.3448C43.647 61.2039 43.36 65.2434 43.3511 69.1341C43.3421 73.3674 43.6649 77.8441 42.5753 81.9782C41.6158 85.6074 39.4142 88.7362 38.6788 92.442C38.5084 93.2941 39.8043 93.6548 39.9747 92.8027C40.7638 88.8354 43.2031 85.4767 44.064 81.5274C44.9473 77.488 44.6873 73.2411 44.6962 69.1341C44.7052 65.3381 44.9339 61.4564 44.4362 57.6829C44.2165 56.0149 43.8398 54.3648 43.1224 52.841C42.3242 51.1414 40.7862 49.8475 40.2078 48.0622C39.9343 47.2372 38.634 47.5888 38.9075 48.4184Z" fill="#727272"/>
<path d="M45.4495 48.2064C48.1219 50.731 49.4088 54.7614 50.3729 58.2418C51.3773 61.8665 51.041 65.7347 50.8168 69.445C50.3639 76.9739 49.0994 84.4938 45.5078 91.2021C45.0953 91.9685 46.2566 92.6538 46.6692 91.8829C50.4984 84.7282 51.7764 76.6854 52.2023 68.6606C52.4176 64.6211 52.5924 60.6763 51.3324 56.7857C50.2384 53.4089 49.0322 49.7392 46.4001 47.2461C45.7724 46.6555 44.8173 47.6113 45.4495 48.2064Z" fill="#727272"/>
<path d="M17.4697 51.5877C17.3307 51.9438 17.1783 52.2955 17.0124 52.6426C16.8016 53.0799 17.0482 53.6795 17.5953 53.6615C17.9854 53.648 18.2948 53.4722 18.5728 53.2062C18.6625 53.1205 18.7521 53.0303 18.8373 52.9447C18.9494 52.832 18.8015 53.0123 18.8867 52.9086C18.8687 52.9357 18.7746 52.9267 18.8598 52.9357C18.6445 52.6517 18.4293 52.3631 18.2096 52.0791C18.1513 52.3812 18.0885 52.6832 18.0302 52.9898C17.9585 53.3459 18.1334 53.7201 18.501 53.8238C18.8329 53.914 19.2588 53.7111 19.3306 53.3504C19.3889 53.0484 19.4516 52.7463 19.5099 52.4398C19.5996 51.9799 19.3171 51.6283 18.8598 51.5832C18.4876 51.5471 18.1513 51.7455 17.8867 51.9889C17.7926 52.0746 17.7119 52.1648 17.6177 52.2504C17.5863 52.2775 17.5594 52.3045 17.528 52.3316C17.5415 52.318 17.5549 52.309 17.5684 52.2955C17.5011 52.3316 17.5011 52.3361 17.5774 52.3045C17.5011 52.3225 17.5056 52.3271 17.5908 52.3045C17.7836 52.6426 17.9764 52.9808 18.1737 53.3234C18.3889 52.8726 18.5862 52.4127 18.7656 51.9484C18.8956 51.6057 18.6221 51.2045 18.2948 51.1143C17.9181 51.0106 17.6043 51.2451 17.4697 51.5877Z" fill="#727272"/>
<path d="M14.1382 59.6802C14.0754 60.0589 14.0127 60.4376 13.9499 60.8117C13.9006 61.1138 13.9813 61.4113 14.2593 61.5736C14.5059 61.7179 14.8781 61.6909 15.0754 61.47C15.2054 61.3212 15.3354 61.1724 15.4655 61.0236C15.5506 60.9245 15.6717 60.7396 15.7748 60.6855C15.6627 60.7171 15.5506 60.7486 15.4341 60.7757C15.4565 60.7712 15.4834 60.7712 15.5058 60.7667C15.3937 60.7351 15.2816 60.7035 15.165 60.6765C15.183 60.69 15.2009 60.7035 15.2188 60.7171C15.1067 60.5232 14.9946 60.3294 14.887 60.131C14.9229 60.5187 14.8153 60.9515 14.7704 61.3437C14.7077 61.9073 15.3758 62.1146 15.7838 61.9298C16.3129 61.6818 16.6672 61.2265 16.8555 60.681C16.4788 60.7802 16.1067 60.8794 15.73 60.9786C15.7166 60.8929 15.7031 60.8072 15.6897 60.7216C15.4699 61.5646 16.7703 61.9253 16.9855 61.0822C17.0842 60.699 16.9945 60.2798 16.6806 60.0228C16.277 59.6937 15.7345 59.8109 15.5551 60.3203C15.4744 60.5458 15.3085 60.663 15.1023 60.7622C15.4386 60.956 15.7748 61.1499 16.1156 61.3482C16.1829 60.7441 16.5057 59.6711 15.6807 59.4412C14.9857 59.2474 14.4969 60.0769 14.1203 60.5142C14.4969 60.7351 14.8691 60.9515 15.2457 61.1724C15.3085 60.7937 15.3713 60.415 15.4341 60.0408C15.4924 59.6802 15.3399 59.3105 14.9633 59.2068C14.6449 59.1211 14.1965 59.3195 14.1382 59.6802Z" fill="#727272"/>
<path d="M13.5597 67.8266C13.6046 68.3586 13.6539 68.8905 13.6987 69.418C13.766 70.1709 14.7749 70.3467 15.0215 69.5983C15.156 69.1836 15.3443 68.8094 15.582 68.4397C15.174 68.3856 14.7614 68.3315 14.3534 68.2774C14.5103 68.6696 14.6179 69.0709 14.6762 69.4947C14.7435 69.9725 15.3219 70.0537 15.6627 69.9004C15.8331 69.8238 15.9721 69.675 16.0618 69.5127C16.1021 69.4406 16.1335 69.3549 16.1604 69.2783C16.1739 69.2377 16.1828 69.1971 16.1963 69.1565C16.2187 69.0889 16.2097 69.0934 16.1784 69.1701C16.0797 69.2287 15.9811 69.2873 15.8824 69.3459C15.9048 69.3369 15.9317 69.3324 15.9542 69.3233C15.8331 69.3233 15.7165 69.3233 15.5954 69.3233C15.5865 69.3188 15.5775 69.3143 15.573 69.3053C15.4923 69.2242 15.4116 69.143 15.3309 69.0619C15.3443 69.0799 15.3533 69.0979 15.3668 69.116C15.3443 68.9401 15.3219 68.7688 15.2995 68.593C15.295 68.6155 15.295 68.6381 15.2905 68.6561C15.2412 69.0168 15.3757 69.3819 15.7614 69.4901C16.0752 69.5758 16.5416 69.3819 16.5909 69.0168C16.6312 68.7237 16.6088 68.4577 16.3936 68.2368C16.2142 68.0565 15.9407 67.9708 15.6896 67.9979C15.4295 68.0294 15.2009 68.1827 15.0619 68.4036C15.0036 68.4983 14.9229 68.6291 14.9184 68.7373C14.9139 68.895 14.8466 68.7823 14.9901 68.7192C15.3174 68.8545 15.6493 68.9897 15.9766 69.125C15.9183 68.7057 15.8107 68.3045 15.6537 67.9077C15.4385 67.3757 14.757 67.2225 14.4251 67.7454C14.1292 68.2098 13.9005 68.7057 13.7301 69.2242C14.1696 69.2828 14.609 69.3459 15.0529 69.4045C15.0081 68.8725 14.9587 68.3405 14.9139 67.813C14.8825 67.4479 14.6269 67.1368 14.2413 67.1368C13.896 67.1503 13.5283 67.4614 13.5597 67.8266Z" fill="#727272"/>
<path d="M15.1784 77.3662C15.2233 78.1461 15.6134 78.8269 16.2905 79.2236C16.7389 79.4806 17.2949 79.1515 17.3038 78.6375C17.3083 78.2408 17.398 77.8756 17.5505 77.5104C17.1738 77.6096 16.8016 77.7088 16.425 77.808C16.6088 78.0334 16.8061 78.2318 17.0258 78.4166C17.3845 78.7187 18.0392 78.6601 18.1513 78.1191C18.1782 77.9973 18.2096 77.8936 18.2499 77.7809C17.8733 77.8801 17.5011 77.9793 17.1245 78.0785C17.1648 78.0559 17.1873 78.083 17.1828 78.1551C17.3263 78.4933 17.8195 78.5654 18.102 78.3986C18.4472 78.1957 18.4876 77.8125 18.3441 77.4744C18.2858 77.3391 18.1917 77.2174 18.0751 77.1227C17.6581 76.7936 17.1469 76.9153 16.9496 77.4203C16.9048 77.533 16.8734 77.6412 16.851 77.7584C17.2276 77.6592 17.5998 77.56 17.9764 77.4608C17.7567 77.276 17.5594 77.0731 17.3756 76.8522C17.0169 76.4104 16.425 76.7395 16.2501 77.1498C16.0528 77.6231 15.9631 78.1236 15.9542 78.6375C16.2905 78.4437 16.6268 78.2498 16.9675 78.0514C16.7075 77.9027 16.5371 77.6682 16.5191 77.3617C16.4743 76.5051 15.1291 76.4961 15.1784 77.3662Z" fill="#727272"/>
<path d="M17.9496 86.6398C18.1065 87.0455 18.2948 87.4197 18.5504 87.7759C18.9495 88.3259 19.7431 88.123 19.8059 87.4333C19.8104 87.3927 19.8821 86.8923 19.8552 86.8697C19.6624 86.9914 19.4741 87.1132 19.2813 87.2349C19.3261 87.298 19.3665 87.3566 19.4158 87.4152C19.5862 87.6316 19.7969 87.8165 20.0705 87.8931C20.2812 87.9472 20.5278 87.9202 20.7117 87.8029C20.8327 87.7218 20.9179 87.6271 20.9807 87.4964C21.0031 87.4423 21.0255 87.3882 21.048 87.3341C21.1511 87.0095 20.9538 86.9554 20.4606 87.1718C20.7296 87.9923 22.0299 87.6406 21.7564 86.8111C21.5681 86.2431 21.0211 85.8734 20.4247 86.0988C20.1826 86.1935 19.9718 86.3738 19.8552 86.6082C19.8194 86.6804 19.6893 86.9914 19.7342 87.0816C19.9942 86.9328 20.2498 86.7796 20.5099 86.6308C20.474 86.5857 20.4381 86.5451 20.4068 86.5C20.1915 86.0627 19.5683 85.8148 19.1199 85.9771C18.4876 86.2025 18.5145 86.8787 18.4652 87.4378C18.8822 87.3251 19.2992 87.2124 19.7207 87.0951C19.5369 86.8427 19.371 86.5767 19.2544 86.2836C18.9315 85.4812 17.6312 85.8283 17.9496 86.6398Z" fill="#727272"/>
<path d="M25.1373 51.7725C24.6531 52.1376 24.2495 52.5704 23.985 53.1249C23.6397 53.8463 24.4423 54.4143 25.0432 53.9455C25.1867 53.8327 25.3301 53.72 25.4736 53.6073C25.5364 53.5577 25.5992 53.5082 25.6664 53.4586C25.6978 53.4315 25.7292 53.409 25.7606 53.3819C25.8727 53.3008 25.8144 53.3143 25.5857 53.418C25.4736 53.3864 25.3615 53.3549 25.2449 53.3278C25.2584 53.3368 25.2718 53.3459 25.2853 53.3549C25.2046 53.2737 25.1239 53.1926 25.0432 53.1114C25.0297 53.0528 25.0118 52.9987 24.9983 52.9401C25.0028 52.877 25.0028 52.868 24.9894 52.9221C24.958 52.9446 24.949 53.0979 24.949 53.1204C24.9176 53.3278 24.9356 53.5307 25.0432 53.72C25.1418 53.8914 25.3167 54.0446 25.5095 54.0942C25.5902 54.1168 25.6933 54.1258 25.7785 54.1258C25.8592 54.1258 25.931 54.1123 26.0027 54.0852C26.0969 54.0582 26.0655 54.0491 25.9041 54.0582C25.8054 53.9996 25.7068 53.9409 25.6081 53.8823C25.6216 53.8959 25.635 53.9094 25.6485 53.9229C25.5902 53.8237 25.5319 53.7245 25.4736 53.6254C25.4781 53.6389 25.4826 53.6569 25.4871 53.6704C25.5095 53.4946 25.5319 53.3233 25.5543 53.1475C25.5454 53.161 25.5409 53.1745 25.5319 53.1881C25.1239 53.9545 26.2852 54.6397 26.6933 53.8688C26.8681 53.5442 26.8278 53.179 26.5543 52.9221C26.4108 52.7868 26.218 52.7057 26.0207 52.7012C25.9086 52.6967 25.7785 52.7688 25.6799 52.7598C25.792 52.7913 25.9041 52.8229 26.0207 52.8499C26.0027 52.8364 25.9848 52.8229 25.9713 52.8139C26.0521 52.895 26.1328 52.9762 26.2135 53.0573C26.2045 53.0393 26.1955 53.0213 26.1866 53.0032C26.218 53.1159 26.2493 53.2286 26.2762 53.3459C26.2673 53.2602 26.2807 53.3053 26.3121 53.179C26.348 53.0213 26.3525 52.8499 26.3166 52.6876C26.2404 52.363 25.9982 52.1286 25.6754 52.07C25.3391 52.0069 25.1104 52.1827 24.8548 52.3811C24.5993 52.5794 24.3437 52.7823 24.0881 52.9807C24.4423 53.2557 24.7921 53.5262 25.1463 53.8012C25.3077 53.4676 25.514 53.161 25.8144 52.9356C26.1059 52.7192 26.2538 52.3495 26.0565 52.0114C25.8906 51.7274 25.4333 51.5561 25.1373 51.7725Z" fill="#727272"/>
<path d="M22.5052 59.3826C22.3931 59.9236 22.2855 60.4646 22.1734 61.0101C22.0344 61.6999 22.7788 62.0966 23.2989 61.6683C23.4513 61.5421 23.5859 61.3843 23.6845 61.213C23.7518 61.0957 23.8325 60.8568 23.8684 60.7982C23.7876 60.8793 23.7069 60.9605 23.6262 61.0416C23.6486 61.0281 23.6666 61.0146 23.689 60.9966C23.5769 61.0281 23.4648 61.0597 23.3482 61.0867C23.3751 61.0822 23.402 61.0822 23.4289 61.0777C23.3168 61.0461 23.2047 61.0146 23.0881 60.9875C22.9805 60.9379 22.976 60.7621 23.0074 60.992C23.0164 61.0507 23.0299 61.1002 23.0478 61.1543C23.1106 61.3572 23.2227 61.5376 23.3931 61.6638C23.55 61.781 23.7338 61.8441 23.9311 61.8396C24.0522 61.8351 24.1643 61.8035 24.2719 61.7494C24.3302 61.7269 24.3795 61.6953 24.4244 61.6548C24.5409 61.5736 24.5096 61.5781 24.3347 61.6593C24.2226 61.6277 24.1105 61.5962 23.9939 61.5691C24.0118 61.5781 24.0163 61.5871 24.0298 61.6232C24.3167 62.4392 25.6171 62.0876 25.3256 61.2625C25.2001 60.9064 25.0162 60.5773 24.671 60.4015C24.4916 60.3068 24.2674 60.2797 24.0701 60.3248C23.8728 60.3699 23.7563 60.5006 23.5859 60.5818C23.698 60.5502 23.8101 60.5187 23.9266 60.4916C23.9042 60.4916 23.8773 60.4916 23.8549 60.4916C23.967 60.5232 24.0791 60.5547 24.1957 60.5818C24.3167 60.7937 24.3526 60.8252 24.3033 60.6765C24.2943 60.6179 24.2854 60.5593 24.2764 60.5006C24.245 60.3834 24.1957 60.2617 24.1329 60.1625C23.967 59.901 23.6935 59.7297 23.3841 59.7342C23.0792 59.7387 22.8012 59.9146 22.6577 60.1806C22.5366 60.406 22.5456 60.5412 22.3393 60.7125C22.716 60.9334 23.0881 61.1498 23.4648 61.3707C23.5769 60.8297 23.6845 60.2888 23.7966 59.7478C23.976 58.8912 22.6801 58.5305 22.5052 59.3826Z" fill="#727272"/>
<path d="M21.9851 66.2938C21.8461 67.0196 21.7564 67.75 21.734 68.4848C21.716 68.9988 22.3169 69.3234 22.7473 69.0709C22.9446 68.9537 23.0881 68.7959 23.1957 68.593C23.2361 68.5164 23.3527 68.3406 23.3303 68.2729C23.3258 68.2639 23.2854 68.3225 23.3034 68.3135C23.1913 68.3451 23.0792 68.3766 22.9626 68.4037C22.9536 68.4082 22.9402 68.4082 22.9312 68.4127C22.8505 68.3316 22.7698 68.2504 22.6891 68.1693C22.7653 68.2684 22.7563 68.2594 22.7653 68.3631C22.8146 68.9176 23.4782 69.2873 23.9132 68.841C23.9625 68.7869 24.0118 68.7373 24.0656 68.6877C23.9715 68.7328 23.8728 68.7238 23.7787 68.6697C23.7204 68.5705 23.6621 68.4713 23.6038 68.3721C23.6127 68.3992 23.6217 68.4262 23.6352 68.4533C23.7607 68.7959 24.0925 69.0303 24.4647 68.9267C24.792 68.8365 25.0611 68.4398 24.9355 68.0926C24.5858 67.1369 23.5679 67.2586 22.9626 67.8852C23.3437 68.043 23.7293 68.2053 24.1105 68.3631C24.0567 67.7094 23.7338 67.0016 22.9626 67.0512C22.6487 67.0692 22.3707 67.2541 22.2048 67.5201C22.1465 67.6147 22.1061 67.7229 22.0613 67.8266C22.012 67.9393 21.9268 67.9799 22.0658 67.8988C22.4021 68.0926 22.7384 68.2865 23.0792 68.4848C23.0971 67.8672 23.1644 67.2586 23.2809 66.65C23.4468 65.8024 22.151 65.4417 21.9851 66.2938Z" fill="#727272"/>
<path d="M22.6532 74.0166C22.8056 74.6207 22.9895 75.2113 23.2047 75.7929C23.3796 76.2662 23.9401 76.4646 24.3302 76.0904C24.5006 75.9236 24.6171 75.7298 24.6754 75.4953C24.6979 75.4006 24.7158 75.2879 24.7203 75.1933C24.7337 74.9047 24.7023 75.1437 24.7292 75.1302C24.6171 75.1617 24.505 75.1933 24.3885 75.2203C24.4198 75.2203 24.4468 75.2158 24.4781 75.2158C24.366 75.1842 24.2539 75.1527 24.1374 75.1256C24.0477 75.0851 24.0746 75.0445 24.1463 75.1707C24.1822 75.2338 24.2136 75.2879 24.2584 75.3465C24.3974 75.5269 24.5678 75.6486 24.7965 75.6802C24.9983 75.7072 25.1911 75.6576 25.3615 75.5404C25.4556 75.4728 25.5408 75.3961 25.6036 75.297C25.6305 75.2429 25.6574 75.1888 25.6798 75.1347C25.7695 74.9588 25.6933 75.0039 25.4512 75.2744C25.3301 75.2744 25.2135 75.2744 25.0924 75.2744C25.0386 75.2293 24.9893 75.1797 24.9355 75.1347C24.9041 75.0219 24.8727 74.9092 24.8458 74.792C24.8458 74.8191 24.8458 74.8461 24.8458 74.8732C24.8324 75.7433 26.1776 75.7433 26.191 74.8732C26.2 74.4178 25.8861 74.0617 25.4512 73.9715C25.218 73.9219 24.9848 73.9715 24.792 74.1113C24.6979 74.1789 24.6216 74.2555 24.5589 74.3502C24.5454 74.3773 24.5319 74.4088 24.514 74.4359C24.3974 74.6613 24.4288 74.6568 24.6127 74.4223C24.7248 74.3908 24.8369 74.3592 24.9534 74.3322C24.931 74.3367 24.9086 74.3367 24.8862 74.3412C24.9983 74.3728 25.1104 74.4043 25.227 74.4314C25.4198 74.526 25.3211 74.4945 25.2494 74.3682C25.1956 74.2691 25.1238 74.1744 25.0431 74.1023C24.7875 73.8723 24.4512 73.8137 24.1329 73.9264C23.8773 74.0166 23.6845 74.215 23.5544 74.4449C23.4827 74.5756 23.4468 74.7064 23.4199 74.8506C23.4065 74.9137 23.4199 75.0941 23.3796 75.1347C23.7562 75.2338 24.1284 75.333 24.505 75.4322C24.2898 74.8506 24.106 74.2555 23.9535 73.6559C23.7338 72.8174 22.4379 73.1735 22.6532 74.0166Z" fill="#727272"/>
<path d="M23.3302 80.477C23.5724 81.1938 23.8818 81.8836 24.2629 82.5328C24.5364 82.9972 25.1418 82.9431 25.4242 82.5328C25.5005 82.4201 25.5543 82.3029 25.5901 82.1721C25.5946 82.1316 25.5991 82.0955 25.6081 82.0549C25.6798 81.7934 25.617 81.8025 25.4108 82.0865C25.2897 82.0865 25.1731 82.0865 25.0521 82.0865C24.8637 82.0279 24.9489 82.0414 25.0476 82.1496C25.1193 82.2262 25.209 82.3074 25.3032 82.3615C25.496 82.4697 25.7247 82.5103 25.9444 82.4922C26.4466 82.4562 26.7918 82.1226 26.9577 81.6672C27.2582 80.8512 25.9578 80.4951 25.6619 81.3065C25.7471 81.0811 25.9578 81.2074 25.922 81.0992C25.8951 81.0225 25.7381 80.9188 25.6664 80.8783C25.4467 80.752 25.1821 80.725 24.9445 80.8061C24.7247 80.8783 24.5499 81.0451 24.4378 81.2479C24.3391 81.4283 24.366 81.6988 24.2584 81.8521C24.644 81.8521 25.0341 81.8521 25.4198 81.8521C25.0924 81.2975 24.8279 80.7295 24.6216 80.1209C24.3526 79.3003 23.0522 79.652 23.3302 80.477Z" fill="#727272"/>
<path d="M25.1014 88.1907C25.1059 88.5649 25.1597 88.939 25.2763 89.2907C25.3615 89.5477 25.5633 89.737 25.8368 89.7731C26.0834 89.8046 26.3928 89.6919 26.5049 89.4485C26.5811 89.2862 26.6574 89.1239 26.7336 88.9661C26.7695 88.8895 26.8053 88.8173 26.8367 88.7407C26.8546 88.7046 26.8726 88.664 26.8905 88.628C26.9264 88.5603 26.9264 88.5603 26.8905 88.628C26.7919 88.6866 26.6932 88.7452 26.5946 88.8038C26.608 88.7993 26.626 88.7903 26.6394 88.7858C26.5184 88.7858 26.4018 88.7858 26.2807 88.7858C26.2583 88.7767 26.2314 88.7632 26.209 88.7542C26.1282 88.6731 26.0475 88.5919 25.9668 88.5108C25.8996 88.398 25.9623 88.4927 25.9892 88.5694C26.0117 88.6415 26.0386 88.7091 26.061 88.7813C26.1103 88.921 26.1596 89.0653 26.2045 89.205C26.3211 89.5522 26.6663 89.7776 27.034 89.6784C27.3658 89.5882 27.6214 89.1915 27.5048 88.8444C27.312 88.2853 27.1506 87.3656 26.3704 87.4693C25.765 87.5505 25.5633 88.2898 25.3391 88.7677C25.7471 88.8218 26.1596 88.8759 26.5677 88.93C26.4825 88.664 26.4421 88.4476 26.4376 88.1862C26.4332 87.8345 26.1327 87.4919 25.7651 87.5099C25.4108 87.5279 25.0969 87.812 25.1014 88.1907Z" fill="#727272"/>
<path d="M31.2803 89.0111C31.2444 89.3177 31.2085 89.6288 31.1727 89.9353C31.1368 90.2239 31.4058 90.5169 31.6659 90.589C31.9708 90.6747 32.2533 90.5259 32.4237 90.278C32.5448 90.1021 32.6658 89.9308 32.7869 89.755C32.8407 89.6738 32.899 89.5972 32.9528 89.5161C32.9752 89.4845 32.9976 89.4529 33.02 89.4214C33.1187 89.2861 33.1052 89.2951 32.9842 89.4484C32.8721 89.48 32.76 89.5115 32.6434 89.5386C32.6658 89.5386 32.6838 89.5386 32.7062 89.5386C32.5941 89.507 32.482 89.4755 32.3654 89.4484C32.2309 89.214 32.186 89.1689 32.2309 89.3132C32.2443 89.3673 32.2533 89.4259 32.2667 89.48C32.2892 89.5927 32.3116 89.7009 32.3385 89.8136C32.3878 90.048 32.4102 90.323 32.5313 90.5349C32.6479 90.7333 32.8407 90.9046 33.0649 90.9677C33.4102 91.0624 33.6926 90.8866 33.8944 90.6161C34.1141 90.323 33.9393 89.8587 33.6523 89.6919C33.307 89.489 32.9528 89.6423 32.7331 89.9353C32.7241 89.9489 32.7151 89.9624 32.7062 89.9714C32.899 89.8587 33.0918 89.746 33.2891 89.6378C33.2756 89.6378 33.2622 89.6423 33.2487 89.6423C33.3608 89.6738 33.4729 89.7054 33.5895 89.7325C33.7061 89.7911 33.7778 90.1202 33.7106 89.7866C33.6926 89.6919 33.6702 89.6017 33.6523 89.507C33.6164 89.3402 33.585 89.1734 33.5492 89.0066C33.4684 88.655 33.2577 88.3123 32.89 88.2086C32.482 88.0959 32.1591 88.3304 31.9305 88.6369C31.7018 88.948 31.4865 89.2681 31.2668 89.5837C31.6838 89.6964 32.1008 89.8091 32.5223 89.9263C32.5582 89.6197 32.5941 89.3087 32.6299 89.0021C32.6703 88.6369 32.2892 88.3259 31.9574 88.3259C31.5583 88.3349 31.3251 88.6505 31.2803 89.0111Z" fill="#727272"/>
<path d="M31.926 76.6629C31.76 77.3842 31.6793 78.1236 31.6928 78.863C31.7018 79.4986 32.6344 79.8277 32.9483 79.2056C33.0828 78.9351 33.2173 78.6691 33.3518 78.3986C33.4505 78.2002 33.5222 77.9523 33.7016 77.8125C33.6029 77.8711 33.5043 77.9297 33.4057 77.9884C33.4057 77.9838 33.4057 77.9793 33.4101 77.9748C33.1949 77.808 32.9797 77.6457 32.76 77.4789C32.8452 77.799 32.9304 78.1191 33.0156 78.4392C33.1232 78.8404 33.6388 79.0839 34.002 78.8449C34.0648 78.8044 34.1276 78.7593 34.1903 78.7187C34.9078 78.2408 34.2352 77.0687 33.5133 77.551C33.4505 77.5916 33.3877 77.6367 33.3249 77.6773C33.6523 77.8125 33.9841 77.9478 34.3114 78.083C34.2262 77.7629 34.141 77.4428 34.0558 77.1228C33.9796 76.8387 33.7016 76.6223 33.4057 76.6268C32.4595 76.6449 32.1367 77.8261 31.787 78.5294C32.204 78.6421 32.621 78.7548 33.0425 78.872C33.0335 78.2453 33.0873 77.6412 33.2263 77.0281C33.4146 76.176 32.1188 75.8153 31.926 76.6629Z" fill="#727272"/>
<path d="M30.6436 66.5462C30.675 67.0781 30.7019 67.6056 30.7333 68.1376C30.7691 68.8048 31.6211 69.0618 31.9888 68.4802C32.2488 68.0655 32.5089 67.6552 32.769 67.2404C32.3834 67.2404 31.9933 67.2404 31.6076 67.2404C31.7018 67.4027 31.7601 67.5515 31.7691 67.7409C31.8005 68.336 32.4775 68.62 32.917 68.2187C33.2577 67.9122 33.4774 67.5425 33.6434 67.1142C33.316 67.2495 32.9842 67.3847 32.6569 67.52C32.6569 67.529 32.6569 67.538 32.6524 67.5425C32.5941 67.4433 32.5358 67.3441 32.4775 67.245C32.491 67.272 32.4999 67.3036 32.5134 67.3306C32.6524 67.6687 32.9573 67.9077 33.3429 67.804C33.6568 67.7183 33.9527 67.3126 33.8137 66.9699C33.6972 66.6949 33.5761 66.5281 33.334 66.3478C32.9528 66.0638 32.4865 66.3884 32.3475 66.7535C32.2668 66.9609 32.1278 67.1142 31.9664 67.263C32.3475 67.4208 32.7331 67.5831 33.1143 67.7409C33.0918 67.3171 32.9842 66.9249 32.769 66.5597C32.5044 66.1134 31.8767 66.1314 31.6076 66.5597C31.3476 66.9745 31.0875 67.3847 30.8274 67.7995C31.2444 67.9122 31.6615 68.0249 32.0829 68.1421C32.0516 67.6101 32.0247 67.0827 31.9933 66.5507C31.9395 65.6806 30.5943 65.6761 30.6436 66.5462Z" fill="#727272"/>
<path d="M31.0068 57.6063C30.9664 57.9489 30.9485 58.2916 30.9575 58.6342C30.9709 59.1031 31.5359 59.5359 31.9708 59.2203C32.195 59.058 32.334 58.8731 32.4103 58.6071C32.4282 58.544 32.4461 58.4719 32.4551 58.4088C32.4641 58.3502 32.4999 58.3457 32.4506 58.3907C32.2175 58.6071 31.9708 58.9182 31.5987 58.4674C31.639 58.517 31.6256 58.5125 31.5987 58.4539C31.6301 58.5215 31.6525 58.5981 31.6839 58.6657C31.7377 58.783 31.8184 58.8867 31.9081 58.9768C32.1861 59.2518 32.5986 59.3059 32.9349 59.1121C33.2532 58.9317 33.3564 58.4989 33.177 58.1879C32.9887 57.8678 32.5762 57.7641 32.2578 57.9444C32.2444 57.9534 32.2264 57.9625 32.213 57.9715C32.3251 57.9399 32.4372 57.9084 32.5537 57.8813C32.5896 57.8768 32.9125 58.0571 32.8856 58.0661C32.9035 58.1022 32.9035 58.1022 32.89 58.0707C32.8766 58.0346 32.8631 57.9985 32.8452 57.9625C32.7914 57.8317 32.7286 57.71 32.63 57.6018C32.4103 57.3719 32.0695 57.2592 31.7601 57.3583C31.4686 57.4485 31.2758 57.6829 31.1817 57.967C31.1592 58.0301 31.1503 58.0932 31.1323 58.1608C31.1234 58.1924 31.1144 58.2194 31.1099 58.251C31.092 58.3096 31.092 58.3096 31.1144 58.251C31.1413 58.1653 31.1996 58.0977 31.2893 58.0526C31.6256 58.2465 31.9619 58.4403 32.3026 58.6387C32.2937 58.2961 32.3116 57.9534 32.352 57.6108C32.3968 57.2592 32.0112 56.921 31.6794 56.9346C31.2803 56.9526 31.0561 57.2321 31.0068 57.6063Z" fill="#727272"/>
<path d="M30.5943 50.6724C30.4687 51.1683 30.5315 51.6778 30.796 52.1151C31.1099 52.6471 31.8318 52.4848 32.0246 51.9528C32.0964 51.7544 31.9888 52.0745 32.056 51.8716C32.0829 51.795 32.1054 51.8311 32.0381 51.8626C31.8318 51.9708 31.5538 51.8987 31.4911 51.6282C31.5763 51.9843 31.9753 52.1962 32.3206 52.1016C32.6793 52.0024 32.8766 51.6282 32.7914 51.2675C32.6703 50.7536 32.1143 50.4786 31.6166 50.5958C31.1279 50.7175 30.8902 51.1458 30.7288 51.5876C31.1368 51.5335 31.5493 51.4794 31.9574 51.4253C31.8901 51.3081 31.8812 51.3171 31.8677 51.1774C31.8767 51.2495 31.8722 51.1593 31.8722 51.1368C31.8812 50.9384 31.8453 51.2179 31.8901 51.0241C31.9753 50.6814 31.778 50.2757 31.4193 50.19C31.0741 50.1179 30.6884 50.3027 30.5943 50.6724Z" fill="#727272"/>
<path d="M11.3671 49.0766C11.1698 49.338 10.9904 49.613 10.8335 49.9016C10.5689 50.3749 11.0173 51.1143 11.5913 50.8934C11.7975 50.8168 11.9993 50.7356 12.2056 50.659C11.9321 50.5012 11.6541 50.3434 11.3761 50.1856C11.4119 50.2893 11.4299 50.3569 11.4254 50.4606C11.4209 50.8032 11.7393 51.1684 12.098 51.1368C12.4343 51.1098 12.7212 51.0286 13.0217 50.8844C13.349 50.7266 13.4342 50.2532 13.2638 49.9602C13.0665 49.6221 12.6719 49.5589 12.3446 49.7167C12.2773 49.7483 12.1518 49.7798 12.098 49.7844C12.3222 50.0098 12.5464 50.2352 12.7706 50.4606C12.7751 50.2442 12.7437 50.0278 12.6719 49.8249C12.5598 49.5048 12.2056 49.2163 11.8424 49.3516C11.6361 49.4282 11.4343 49.5093 11.2281 49.586C11.4792 49.9151 11.7348 50.2487 11.9859 50.5778C12.1473 50.2893 12.3222 50.0143 12.5195 49.7528C12.7392 49.4598 12.5643 48.9954 12.2773 48.8286C11.941 48.6347 11.5868 48.7835 11.3671 49.0766Z" fill="#727272"/>
<path d="M7.56029 56.6686C7.30471 57.2321 7.08499 57.8092 6.90564 58.4043C6.79354 58.774 7.04015 59.1166 7.37645 59.2383C7.66342 59.342 7.97281 59.2789 8.22391 59.1166C8.33153 59.0444 8.40327 58.9723 8.48398 58.8776C8.79338 58.508 8.3674 58.9858 8.1163 58.6748C8.05801 58.5756 7.99972 58.4764 7.94143 58.3772C7.90556 58.251 7.93246 58.5125 7.93246 58.508C7.94591 58.6117 7.97281 58.7199 8.02662 58.8145C8.12975 58.9903 8.31808 59.1346 8.51089 59.1887C8.87409 59.2879 9.34042 59.1481 9.49735 58.7785C9.64084 58.4448 9.596 58.0526 9.25522 57.8543C8.97273 57.6874 8.4795 57.7596 8.33601 58.0977C8.34947 58.0797 8.36292 58.0616 8.38085 58.0481C8.4795 57.9895 8.57815 57.9309 8.67679 57.8723C8.81131 57.9129 8.94583 57.9534 9.08035 57.994C9.13864 58.0932 9.19693 58.1924 9.25522 58.2916C9.29109 58.4178 9.26419 58.1067 9.25522 58.0752C9.21935 57.9399 9.15657 57.8182 9.0669 57.719C8.90099 57.5432 8.68576 57.4395 8.44363 57.426C8.22391 57.4169 8.02214 57.4801 7.84278 57.6063C7.75759 57.6649 7.68584 57.7325 7.61858 57.8137C7.34058 58.1383 7.53339 57.8633 7.73965 57.9354C7.89659 58.2149 8.05353 58.4899 8.21046 58.7694C8.35395 58.2871 8.52434 57.8182 8.7306 57.3583C8.87857 57.0247 8.82476 56.6325 8.48847 56.4341C8.19253 56.2583 7.70826 56.335 7.56029 56.6686Z" fill="#727272"/>
<path d="M6.07161 64.6437C5.92812 65.4192 5.92812 66.172 6.08057 66.9475C6.1568 67.3307 6.56932 67.4749 6.9101 67.4208C7.1074 67.3893 7.29124 67.2766 7.43024 67.1278C7.48853 67.0647 7.54234 66.9881 7.59166 66.9159C7.61857 66.8753 7.64099 66.8348 7.66341 66.7897C7.70376 66.7266 7.69031 66.7311 7.61408 66.7942C7.49302 66.7942 7.37643 66.7942 7.25537 66.7942C7.28675 66.8032 7.31814 66.8122 7.34953 66.8212C7.25088 66.7626 7.15224 66.704 7.05359 66.6454C7.00427 66.5417 6.99978 66.5462 7.04462 66.6589C7.06704 66.713 7.08946 66.7671 7.11188 66.8212C7.18362 66.9565 7.28227 67.0647 7.40782 67.1458C7.70824 67.3487 7.98176 67.3352 8.30461 67.1864C8.63642 67.0376 8.71713 66.5507 8.54674 66.2622C8.34945 65.9196 7.95935 65.87 7.62753 66.0188C7.60511 66.0278 7.57821 66.0413 7.55579 66.0503C7.73066 66.0278 7.90105 66.0052 8.07593 65.9827C8.04902 65.9737 8.02212 65.9692 7.99522 65.9602C8.09386 66.0188 8.19251 66.0774 8.29116 66.136C8.31806 66.2261 8.31806 66.2352 8.29564 66.1675C8.27322 66.0954 8.24632 66.0278 8.21493 65.9647C8.17457 65.888 8.12973 65.8114 8.06696 65.7483C7.87863 65.5454 7.61857 65.4507 7.34505 65.4778C7.1074 65.5003 6.89665 65.6175 6.73075 65.7888C6.65004 65.87 6.58278 65.9647 6.52448 66.0638C6.51103 66.0909 6.4931 66.1179 6.47965 66.145C6.39445 66.2712 6.41687 66.2577 6.55139 66.1089C6.82491 66.2667 7.10291 66.4245 7.38092 66.5823C7.27779 66.0593 7.2733 65.5228 7.37195 64.9999C7.43921 64.6392 7.2733 64.2695 6.90114 64.1658C6.56932 64.0802 6.13887 64.2831 6.07161 64.6437Z" fill="#727272"/>
<path d="M7.03115 74.4042C7.21947 74.7829 7.40331 75.1616 7.59164 75.5403C7.75755 75.8739 8.21042 75.9506 8.51085 75.7838C8.75298 75.6485 8.91889 75.4321 8.99511 75.1616C9.03098 75.0399 9.0534 74.8866 9.03995 74.7604C9.0265 74.6161 9.08927 74.6567 9.01305 74.7243C8.9144 74.7829 8.81575 74.8415 8.71711 74.9001C8.70814 74.9046 8.69917 74.9046 8.6902 74.9092C8.57811 74.8776 8.46601 74.846 8.34942 74.819C8.58259 74.9542 8.69469 75.1706 9.03547 75.1706C9.43902 75.1706 9.5287 74.9317 9.77083 74.6928C9.67219 74.7514 9.57354 74.81 9.47489 74.8686C9.34486 74.7874 9.21483 74.7063 9.08479 74.6206C9.1386 74.9813 9.59148 75.1797 9.91432 75.094C10.2999 74.9858 10.4389 74.6251 10.3851 74.26C10.3224 73.8542 9.94122 73.5522 9.54664 73.5116C9.08479 73.4665 8.78437 73.719 8.56465 74.0977C8.64537 74.0165 8.72608 73.9354 8.80679 73.8542C8.78437 73.8722 8.75746 73.8903 8.73504 73.9083C8.84714 73.8768 8.95924 73.8452 9.07582 73.8181C9.0534 73.8181 9.0265 73.8181 9.00408 73.8181C9.11618 73.8497 9.22828 73.8813 9.34486 73.9083C9.26415 73.8632 9.0534 73.6333 8.87405 73.5837C8.61846 73.5116 8.34942 73.5657 8.13868 73.7235C7.95035 73.8632 7.82032 74.0706 7.75306 74.2915C7.70822 74.4313 7.75755 74.7153 7.6858 74.8145C7.76651 74.7333 7.84722 74.6522 7.92793 74.571C7.90103 74.5846 7.87413 74.6026 7.84274 74.6161C8.14765 74.6973 8.45704 74.7784 8.76195 74.8596C8.57362 74.4809 8.38978 74.1022 8.20145 73.7235C7.80687 72.939 6.64553 73.6243 7.03115 74.4042Z" fill="#727272"/>
<path d="M11.1833 84.4487C11.1609 85.0303 11.7617 85.3594 12.2684 85.2016C12.5105 85.125 12.6854 84.9537 12.802 84.7373C12.8199 84.7012 12.8379 84.6606 12.8558 84.6246C12.9544 84.4668 12.8558 84.5119 12.5509 84.7688C12.4119 84.7508 12.4747 84.7508 12.5733 84.8049C12.8917 84.9807 13.3087 84.8815 13.4925 84.5615C13.6719 84.2504 13.5687 83.8131 13.2504 83.6372C12.9186 83.4524 12.5419 83.3442 12.1742 83.4975C11.9859 83.5786 11.829 83.7139 11.7214 83.8942C11.69 83.9438 11.6586 84.0024 11.6406 84.061C11.6317 84.0791 11.6227 84.0971 11.6138 84.1151C11.8469 83.8536 12.089 83.8311 12.3446 84.0475C12.4029 84.1467 12.4612 84.2459 12.5195 84.3451C12.524 84.3811 12.5285 84.4172 12.533 84.4533C12.5464 84.0971 12.2146 83.759 11.8604 83.777C11.4792 83.7905 11.1967 84.07 11.1833 84.4487Z" fill="#727272"/>
<path d="M36.0377 50.9475C36.1184 51.3533 36.2574 51.732 36.4323 52.1061C36.5982 52.4533 37.0511 52.4984 37.3515 52.3496C37.5219 52.2639 37.6609 52.1107 37.7506 51.9438C37.7775 51.8943 37.7954 51.8402 37.8223 51.7861C37.9658 51.475 37.8179 51.9438 37.4726 51.9078C37.3605 51.8762 37.2484 51.8447 37.1318 51.8176C37.0556 51.7815 37.2439 51.9033 37.2439 51.9033C37.3157 51.9574 37.365 51.9889 37.4502 52.025C37.625 52.1016 37.8044 52.1152 37.9927 52.0881C38.3963 52.0205 38.6339 51.759 38.7864 51.3938C38.9254 51.0557 38.6339 50.65 38.3156 50.5598C37.93 50.4516 37.6295 50.695 37.486 51.0332C37.643 50.7401 37.8403 50.677 38.0734 50.8438C38.0555 50.8258 38.0376 50.8078 38.0152 50.7942C37.93 50.7086 37.7685 50.6184 37.652 50.5868C37.4367 50.5282 37.2036 50.5643 37.0152 50.677C36.8583 50.7717 36.7462 50.9205 36.67 51.0828C36.652 51.1233 36.6296 51.1684 36.6117 51.2135C36.5624 51.3578 36.5893 51.2225 36.67 51.1865C36.9749 51.2676 37.2843 51.3488 37.5892 51.4299C37.4636 51.1639 37.3874 50.8844 37.3291 50.5959C37.2618 50.2352 36.8314 50.0323 36.4996 50.1225C36.1364 50.2172 35.9705 50.5868 36.0377 50.9475Z" fill="#727272"/>
<path d="M37.5982 58.6882C37.6834 59.1165 37.773 59.5448 37.8582 59.9731C38.0017 60.6809 38.9478 60.5502 39.1541 59.9731C39.2214 59.7792 39.3379 59.653 39.4859 59.5178C39.1317 59.4727 38.7819 59.4276 38.4277 59.3825C38.5443 59.653 38.6653 59.928 38.7819 60.1985C38.9164 60.5096 39.4366 60.6448 39.7011 60.442C39.8626 60.3202 39.9926 60.212 40.0957 60.0317C40.1316 59.9686 40.1719 59.8919 40.1944 59.8198C40.2033 59.7883 40.2168 59.7567 40.2347 59.7297C40.3423 59.5313 40.1361 59.4682 39.6115 59.5403C39.5621 59.901 39.9567 60.2165 40.284 60.2165C40.6876 60.2165 40.9073 59.9055 40.9566 59.5403C41.0329 58.9768 40.5082 58.4673 39.9657 58.4673C39.6922 58.4673 39.4455 58.589 39.2617 58.7829C39.1765 58.8731 39.1182 58.9723 39.0599 59.0805C39.0241 59.1526 38.8851 59.378 39.0241 59.2743C39.329 59.3555 39.6384 59.4366 39.9433 59.5178C39.8267 59.2473 39.7056 58.9723 39.589 58.7018C39.4052 58.278 38.8178 58.305 38.5308 58.5665C38.208 58.8595 38.0017 59.2112 37.8538 59.6169C38.2842 59.6169 38.7192 59.6169 39.1496 59.6169C39.0644 59.1887 38.9747 58.7604 38.8895 58.3321C38.7236 57.4755 37.4233 57.8362 37.5982 58.6882Z" fill="#727272"/>
<path d="M38.7774 69.0303C38.7371 69.3684 38.7774 69.7156 38.8671 70.0402C38.9792 70.4324 39.4904 70.6984 39.8536 70.4459C40.0912 70.2791 40.2347 70.0988 40.3379 69.8283C40.3648 69.7607 40.3872 69.6885 40.4096 69.6164C40.45 69.4721 40.4096 69.666 40.293 69.684C40.172 69.684 40.0554 69.684 39.9343 69.684C39.8222 69.6389 39.7505 69.5713 39.7325 69.4721C39.7191 69.4271 39.7236 69.4406 39.7505 69.5127C39.7639 69.5533 39.7774 69.5984 39.7908 69.6389C39.867 69.8463 39.9747 70.0131 40.145 70.1529C40.5127 70.4504 40.9297 70.4009 41.2885 70.1213C41.5754 69.8959 41.5216 69.4 41.2885 69.1656C41.006 68.8815 40.6248 68.9402 40.3379 69.1656C40.3244 69.1791 40.3065 69.1881 40.293 69.2016C40.3917 69.143 40.4903 69.0844 40.589 69.0258C40.571 69.0303 40.5531 69.0348 40.5352 69.0393C40.6562 69.0393 40.7728 69.0393 40.8939 69.0393C40.9746 69.0529 41.0912 69.3008 41.0418 69.152C41.006 69.0348 40.9611 68.9131 40.8983 68.8094C40.71 68.5029 40.3782 68.327 40.024 68.3631C39.7101 68.3947 39.4545 68.593 39.2841 68.8545C39.2124 68.9672 39.1631 69.0934 39.1227 69.2197C39.1093 69.2602 39.0824 69.3189 39.0779 69.3594C39.0734 69.418 39.0644 69.3459 39.1765 69.2693C39.5038 69.4045 39.8357 69.5398 40.163 69.675C40.1002 69.4541 40.0912 69.2557 40.1181 69.0258C40.1585 68.6606 39.7774 68.3496 39.4456 68.3496C39.0554 68.3541 38.8223 68.6652 38.7774 69.0303Z" fill="#727272"/>
<path d="M38.4053 76.992C38.3694 77.4338 38.4053 77.8666 38.4725 78.3039C38.5532 78.8134 39.2752 78.9441 39.598 78.6015C39.7146 78.4798 39.8356 78.358 39.9612 78.2453C40.0733 78.1461 40.1899 78.047 40.2796 77.9838C39.9522 77.8486 39.6204 77.7133 39.2931 77.5781C39.3334 77.6953 39.3334 77.5601 39.32 77.6863C39.329 77.5916 39.2662 77.7719 39.311 77.6953C39.1362 78.0154 39.2348 78.4347 39.5532 78.6195C39.8626 78.7998 40.2975 78.7007 40.4724 78.3761C40.6652 78.0199 40.728 77.6051 40.5934 77.2174C40.4634 76.8477 39.9791 76.5367 39.607 76.8117C39.2662 77.0641 38.9478 77.3346 38.6564 77.6412C39.033 77.7404 39.4052 77.8396 39.7818 77.9388C39.737 77.6457 39.737 77.3031 39.7594 76.983C39.7863 76.6313 39.4321 76.2932 39.0868 76.3068C38.6922 76.3338 38.4367 76.6133 38.4053 76.992Z" fill="#727272"/>
<path d="M37.9748 85.8238C37.7327 86.2341 37.5489 86.6849 37.4457 87.1537C37.365 87.5099 37.5534 87.8841 37.9165 87.9878C38.2932 88.0915 38.616 87.8616 38.7461 87.5144C38.7864 87.4017 38.9209 87.1583 38.9927 87.0636C38.6743 87.0636 38.3605 87.0636 38.0421 87.0636C37.9614 86.9644 37.939 86.8562 37.9704 86.73C37.9121 87.0906 38.0645 87.4558 38.4412 87.564C38.764 87.6542 39.2079 87.4558 39.2707 87.0906C39.3335 86.7164 39.2662 86.3873 38.9972 86.1078C38.764 85.8644 38.2708 85.8238 38.0466 86.1078C37.7865 86.4324 37.5982 86.7615 37.4502 87.1537C37.8807 87.2755 38.3156 87.3927 38.7461 87.5144C38.8313 87.1357 38.9434 86.8382 39.1407 86.5091C39.3245 86.1935 39.2124 85.7652 38.8985 85.5849C38.5802 85.3955 38.1632 85.5082 37.9748 85.8238Z" fill="#727272"/>
<path d="M42.8982 88.5243C42.6202 88.8895 42.4901 89.3404 42.4677 89.7957C42.4543 90.0617 42.6471 90.3187 42.8802 90.4133C43.1448 90.5215 43.4004 90.4584 43.6156 90.2736C43.9474 89.9895 44.2792 89.701 44.611 89.417C44.2568 89.3719 43.907 89.3268 43.5528 89.2817C43.5259 89.2412 43.5394 89.1826 43.5439 89.1375C43.5483 89.1059 43.6201 88.9977 43.5483 89.1104C43.3555 89.4215 43.4811 89.8543 43.7905 90.0346C44.1133 90.224 44.5169 90.1023 44.7097 89.7912C44.9384 89.426 44.9339 88.9617 44.7142 88.592C44.4765 88.1952 43.9878 88.1727 43.656 88.4567C43.3241 88.7407 42.9923 89.0293 42.6605 89.3133C43.0416 89.4711 43.4273 89.6334 43.8084 89.7912C43.8174 89.5883 43.7725 89.8813 43.8174 89.6875C43.8353 89.6199 43.8532 89.5477 43.8757 89.4801C43.8398 89.5748 43.9295 89.3854 43.9295 89.3809C43.9653 89.3178 44.0057 89.2592 44.0505 89.2051C44.2702 88.9121 44.0954 88.4477 43.8084 88.2809C43.4721 88.078 43.1224 88.2313 42.8982 88.5243Z" fill="#727272"/>
<path d="M45.3823 79.67C45.2881 80.1839 45.2343 80.7024 45.2298 81.2298C45.2208 81.8925 46.158 82.163 46.4853 81.5725C46.6871 81.2028 46.9247 80.8827 47.2207 80.5851C46.9472 80.6212 46.6781 80.6573 46.4046 80.6888C46.3911 80.6798 46.3732 80.6663 46.3598 80.6573C46.3015 80.5581 46.2432 80.4589 46.1849 80.3597C46.1714 80.3192 46.2163 80.1929 46.1714 80.3372C46.14 80.4273 46.1221 80.5716 46.1176 80.6573C46.1087 80.8737 46.1714 81.0856 46.297 81.2614C46.4405 81.4552 46.6781 81.586 46.9247 81.586C47.0593 81.586 47.2162 81.5454 47.3328 81.4823C47.3552 81.4688 47.3731 81.4598 47.3955 81.4462C47.5032 81.3786 47.4718 81.3741 47.3014 81.4327C47.1893 81.4011 47.0772 81.3696 46.9606 81.3425C46.7812 81.2524 46.7678 81.1487 46.7857 81.0179C46.7364 81.3786 46.8754 81.7438 47.2565 81.852C47.5704 81.9376 48.0323 81.7438 48.0861 81.3786C48.1399 80.9909 48.1219 80.5987 47.826 80.3056C47.678 80.1614 47.4538 80.0757 47.2476 80.0802C47.1131 80.0847 46.9561 80.1298 46.8395 80.1929C46.8081 80.211 46.6602 80.2741 46.7454 80.256C46.8664 80.256 46.983 80.256 47.1041 80.256C47.0862 80.2515 47.0637 80.2425 47.0458 80.238C47.1444 80.2966 47.2431 80.3552 47.3417 80.4138C47.3866 80.788 47.4269 80.8827 47.4673 80.6978C47.4852 80.6528 47.4942 80.6077 47.5032 80.5581C47.5256 80.4544 47.5345 80.3462 47.5256 80.238C47.5076 79.9405 47.3552 79.6564 47.0817 79.5257C46.8126 79.3904 46.4898 79.4085 46.2656 79.6294C45.8934 80.0036 45.5751 80.4273 45.3195 80.8872C45.7365 80.9999 46.1535 81.1126 46.575 81.2298C46.5795 80.8286 46.6109 80.4273 46.6826 80.0306C46.7454 79.67 46.584 79.3003 46.2118 79.1966C45.88 79.1064 45.445 79.3093 45.3823 79.67Z" fill="#727272"/>
<path d="M46.288 70.3603C46.0952 70.8246 46.0907 71.3521 46.2387 71.83C46.445 72.4882 47.3148 72.4567 47.5346 71.83C47.6467 71.5054 47.8484 71.2484 48.104 71.023C47.7229 70.8652 47.3373 70.7029 46.9561 70.5451C46.9696 70.7751 46.9875 71.005 47.001 71.2304C47.0279 71.6271 47.2879 71.8616 47.6736 71.9066C47.8888 71.9337 48.0861 71.8616 48.2654 71.7443C48.3417 71.6947 48.4089 71.6361 48.4672 71.5685C48.4896 71.537 48.5165 71.5099 48.539 71.4829C48.6197 71.3972 48.5524 71.4152 48.3327 71.537C48.2206 71.5054 48.1085 71.4738 47.9919 71.4468C47.956 71.4062 47.9157 71.3656 47.8798 71.3251C47.8484 71.2124 47.817 71.0997 47.7901 70.9824C47.7901 71.0005 47.7901 71.0185 47.7946 71.0365C47.826 70.9238 47.8574 70.8111 47.8843 70.6939C47.8753 70.7074 47.8664 70.7255 47.8574 70.739C47.4 71.4829 48.5659 72.1636 49.0187 71.4197C49.2878 70.9824 49.0636 70.4144 48.5928 70.2431C48.3461 70.1529 48.095 70.1709 47.8664 70.2972C47.7722 70.3468 47.6915 70.4189 47.6153 70.4955C47.5973 70.5136 47.5839 70.5361 47.5659 70.5541C47.4763 70.6443 47.5121 70.6443 47.6736 70.5541C47.8978 70.7796 48.122 71.005 48.3461 71.2304C48.3327 71.0005 48.3148 70.7705 48.3013 70.5451C48.261 69.9455 47.6018 69.6705 47.1534 70.0672C46.723 70.4505 46.427 70.9283 46.2387 71.4693C46.6692 71.4693 47.1041 71.4693 47.5346 71.4693C47.4494 71.1943 47.4763 70.9824 47.5839 70.721C47.7229 70.3828 47.4314 69.9771 47.1131 69.8869C46.7274 69.7787 46.427 70.0222 46.288 70.3603Z" fill="#727272"/>
<path d="M45.7276 58.5079C45.7634 58.8866 45.8038 59.2698 45.8397 59.6485C45.871 59.9821 46.0683 60.2706 46.4226 60.3112C46.7454 60.3518 47.0772 60.1579 47.1624 59.8288C47.2342 59.5403 47.3328 59.2788 47.4763 59.0218C47.0907 59.0218 46.7006 59.0218 46.315 59.0218C46.3822 59.1481 46.4495 59.2743 46.5123 59.396C46.7589 59.8604 47.4135 59.8063 47.6736 59.396C47.696 59.3599 47.7274 59.3284 47.7274 59.3149C47.7991 59.2517 47.7498 59.2563 47.5884 59.3284C47.5167 59.369 47.4449 59.378 47.3732 59.3645C47.2925 59.2833 47.2118 59.2022 47.131 59.121C47.1266 59.103 47.1221 59.0849 47.1176 59.0669C47.3777 59.8919 48.678 59.5403 48.4135 58.7062C48.2789 58.2825 47.9112 58.0165 47.4629 58.03C47.0279 58.0435 46.723 58.3681 46.5078 58.7107C46.8934 58.7107 47.2835 58.7107 47.6691 58.7107C47.6019 58.5845 47.5346 58.4583 47.4718 58.3366C47.2387 57.8947 46.5481 57.8993 46.3105 58.3366C46.1177 58.6927 45.9652 59.0714 45.8621 59.4681C46.3015 59.5268 46.7409 59.5899 47.1848 59.6485C47.149 59.2698 47.1086 58.8866 47.0727 58.5079C47.0369 58.1427 46.7903 57.8316 46.4002 57.8316C46.0639 57.8316 45.6917 58.1427 45.7276 58.5079Z" fill="#727272"/>
<path d="M42.3959 50.9475C42.5663 51.3803 42.7771 51.7409 43.073 52.1016C43.4138 52.5164 44.055 52.2459 44.1985 51.804C44.3016 51.4794 44.3465 51.1278 44.3151 50.7897C43.8981 50.9024 43.4811 51.0151 43.0596 51.1323C43.1896 51.3848 43.3735 51.6147 43.5932 51.795C43.8757 52.025 44.2702 52.07 44.5438 51.795C44.7814 51.5561 44.8262 51.0692 44.5438 50.8393C44.463 50.7762 44.3868 50.704 44.324 50.6274C44.2568 50.5417 44.3644 50.695 44.3061 50.6003C44.2747 50.5507 44.2478 50.5011 44.2209 50.4515C44.0819 50.181 43.7366 50.0593 43.4586 50.136C43.1941 50.2081 42.9385 50.4966 42.9654 50.7897C42.9923 51.0737 42.9833 51.1864 42.8982 51.4434C43.2748 51.3442 43.647 51.245 44.0236 51.1458C43.9653 51.0782 43.907 50.9925 43.8398 50.8753C43.8084 50.8212 43.777 50.7626 43.7456 50.7085C43.7366 50.695 43.6649 50.5237 43.6873 50.5913C43.5528 50.2532 43.2389 50.0142 42.8578 50.1179C42.5439 50.2036 42.2614 50.6048 42.3959 50.9475Z" fill="#727272"/>
<path d="M49.1891 50.4245C49.2429 50.7085 49.3506 50.9835 49.4985 51.236C49.651 51.493 49.9693 51.6282 50.2563 51.5471C50.5612 51.4614 50.7226 51.1954 50.7495 50.8934C50.7809 50.5778 50.8123 50.2577 50.8437 49.9421C50.5074 50.136 50.1711 50.3298 49.8303 50.5282C50.0366 50.6815 50.2429 50.8393 50.4491 50.9926C50.7406 51.209 51.2024 51.0421 51.3683 50.7491C51.5701 50.4065 51.4177 50.0413 51.1262 49.8249C50.9199 49.6716 50.7137 49.5138 50.5074 49.3605C50.3191 49.2208 50.0187 49.2478 49.8303 49.3605C49.6106 49.4913 49.5209 49.6987 49.4985 49.9466C49.4671 50.2622 49.4358 50.5823 49.4044 50.8979C49.8214 50.7852 50.2384 50.6725 50.6599 50.5552C50.5523 50.3749 50.5254 50.2893 50.485 50.0684C50.4177 49.7077 49.9873 49.5048 49.6555 49.595C49.2878 49.6942 49.1264 50.0638 49.1891 50.4245Z" fill="#727272"/>
<path d="M52.1754 58.5394C52.2382 58.9136 52.3279 59.2743 52.449 59.6349C52.588 60.0632 53.0364 60.2436 53.4354 60.0407C53.682 59.9145 53.839 59.68 53.9018 59.414C53.9331 59.2923 53.9376 59.1616 53.9466 59.0308C53.9466 58.9857 53.9511 58.9407 53.9556 58.8956C53.9466 59.0849 53.821 59.2067 53.5744 59.2698C53.4623 59.2382 53.3502 59.2067 53.2337 59.1796C53.7628 59.4411 54.1753 59.6169 54.7806 59.4817C55.6236 59.2923 55.2694 57.9849 54.4219 58.1788C54.2112 58.2284 54.0901 58.1021 53.9107 58.012C53.5969 57.8587 53.2381 57.8812 52.9646 58.0976C52.7584 58.2599 52.6642 58.4853 52.6283 58.7423C52.6149 58.8415 52.6104 58.9362 52.6014 59.0353C52.5925 59.121 52.5969 59.1255 52.6059 59.0579C52.5611 59.2112 52.6104 59.148 52.7584 58.8775C53.0857 59.0128 53.4175 59.148 53.7448 59.2833C53.6282 58.9226 53.5386 58.562 53.4713 58.1878C53.4085 57.8271 52.9691 57.6242 52.6418 57.7144C52.2651 57.8091 52.1127 58.1788 52.1754 58.5394Z" fill="#727272"/>
<path d="M53.7404 68.3225C53.6955 68.6652 53.6462 69.0078 53.6014 69.3504C53.561 69.6525 53.6283 69.95 53.9108 70.1123C54.1439 70.2521 54.5475 70.2386 54.7268 70.0086C54.8255 69.8779 54.9241 69.7697 55.0811 69.7156C54.7986 69.4992 54.5116 69.2828 54.2291 69.0619C54.2381 69.3324 54.2426 69.6029 54.2515 69.8734C54.265 70.3242 54.6685 70.6308 55.1035 70.5271C55.3187 70.4775 55.4981 70.3693 55.6685 70.2341L55.8344 70.1033C55.8209 70.0853 55.6057 70.0988 55.5564 70.0447C55.4981 69.9455 55.4398 69.8463 55.3815 69.7472C55.3904 69.7697 55.3949 69.7922 55.4039 69.8148C55.6864 70.6308 56.9867 70.2791 56.6998 69.4541C56.5428 69.0078 56.1841 68.7553 55.7088 68.7689C55.516 68.7734 55.3142 68.8365 55.1483 68.9357C55.0138 69.0168 54.8883 69.1836 54.7358 69.2197C55.0183 69.4361 55.3053 69.6525 55.5877 69.8734C55.5788 69.6029 55.5743 69.3324 55.5653 69.0619C55.5564 68.6471 55.1394 68.2639 54.7134 68.4082C54.3412 68.5389 54.0094 68.7373 53.7673 69.0529C54.1439 69.2738 54.5161 69.4902 54.8927 69.7111C54.9376 69.3685 54.9869 69.0258 55.0317 68.6832C55.0811 68.3225 54.9465 67.9574 54.5609 67.8492C54.256 67.7635 53.7897 67.9574 53.7404 68.3225Z" fill="#727272"/>
<path d="M51.8078 79.5211C51.7136 79.9044 51.6194 80.2876 51.5298 80.6708C51.4446 81.0224 51.6374 81.4101 52.0006 81.5048C52.3234 81.5905 52.6328 81.5273 52.8974 81.3155C53.1081 81.1441 53.1843 80.8781 53.3771 80.7113C53.2785 80.7699 53.1798 80.8286 53.0812 80.8872C53.1126 80.8736 53.144 80.8601 53.1798 80.8466C53.0588 80.8466 52.9422 80.8466 52.8211 80.8466C52.8525 80.8511 52.8839 80.8601 52.9198 80.8646C52.7853 80.7609 52.6507 80.6572 52.5162 80.5535C52.5072 80.4994 52.5117 80.513 52.5252 80.6031C52.5566 80.6798 52.588 80.7564 52.6238 80.8331C52.7135 80.9818 52.8525 81.0855 53.005 81.1532C53.1664 81.2253 53.3457 81.2343 53.5206 81.1982C53.5789 81.1937 53.6372 81.1757 53.691 81.1532C53.9556 81.0675 53.9018 81.0404 53.5296 81.0765C53.4489 80.9954 53.3682 80.9142 53.2875 80.8331C53.2964 80.8466 53.3099 80.8646 53.3188 80.8781C53.2875 80.7654 53.2561 80.6527 53.2292 80.5355C53.2292 80.5535 53.2292 80.5761 53.2247 80.5941C53.1843 81.4642 54.5295 81.4642 54.5699 80.5941C54.5878 80.2244 54.3367 79.9134 53.9914 79.8052C53.83 79.7556 53.6507 79.7511 53.4847 79.7916C53.4265 79.8052 53.1978 79.8503 53.265 79.8593C53.3771 79.8908 53.4892 79.9224 53.6058 79.9494C53.5834 79.9359 53.5655 79.9179 53.543 79.9043C53.6237 79.9855 53.7045 80.0666 53.7852 80.1478C53.7538 80.0847 53.682 79.8457 53.5699 79.7285C53.3906 79.5482 53.0633 79.467 52.8211 79.5347C52.6238 79.5888 52.4534 79.706 52.3189 79.8548C52.2472 79.9359 52.1844 80.0261 52.1306 80.1207C52.1127 80.1523 52.0992 80.1839 52.0813 80.2109C51.9557 80.3822 52.0499 80.3777 52.3638 80.1929C52.5207 80.4724 52.6776 80.7474 52.8346 81.0269C52.9287 80.6437 53.0229 80.2605 53.1126 79.8773C53.3099 79.0342 52.014 78.6736 51.8078 79.5211Z" fill="#727272"/>
<path d="M50.3819 87.6542C50.4805 87.7308 50.5792 87.8074 50.6778 87.8841C50.9648 88.1095 51.4311 87.9292 51.597 87.6406C51.7988 87.2935 51.6464 86.9373 51.3549 86.7164C51.2563 86.6398 51.1576 86.5631 51.059 86.4865C50.772 86.2611 50.3057 86.4414 50.1398 86.73C49.938 87.0771 50.0949 87.4287 50.3819 87.6542Z" fill="#727272"/>
</g>
<path d="M23.2966 45.1744C23.8558 40.4961 20.6227 37.0031 17.1777 34.3092C15.1711 32.7378 13.2096 31.4268 11.9019 29.1774C11.2346 28.0236 10.5943 26.7215 10.22 25.4419C9.48952 22.9502 10.7521 19.0351 13.8769 21.9085C15.6761 23.5652 16.091 25.7024 17.4663 27.5431C18.2418 28.5847 19.4323 29.1416 20.6723 28.4771C24.4014 26.4835 21.5155 19.5694 20.6813 16.8216C19.6712 13.4947 19.1392 10.2935 20.8391 7.09232C21.3983 6.04171 22.025 4.95968 22.742 4.01234C23.2064 3.40173 23.7971 2.74174 24.46 2.3197C25.8308 1.43972 26.6559 1.43972 28.171 1.90665C29.7853 2.40502 29.7988 2.49032 30.128 4.03479C30.2813 4.74866 30.3444 5.53437 30.3805 6.27069C30.4572 7.82864 30.3309 9.40005 30.0108 10.9311C29.411 13.8359 27.684 16.404 27.3053 19.3538C27.0257 21.5224 27.2196 28.4142 30.8089 27.7677C35.0159 27.0088 34.7138 20.2832 38.9073 19.3853C42.3974 18.6354 44.1019 22.4563 42.6229 25.0783C41.8203 26.5061 40.4856 27.6105 39.2004 28.5847C36.9098 30.3223 34.1096 31.2292 31.8595 32.9847C27.7877 36.1725 29.1405 41.1831 30.8134 45.2912C31.1381 46.0858 32.4457 45.7357 32.1165 44.932C30.9893 42.1618 29.5734 38.772 31.0975 35.8627C32.5088 33.1688 36.2334 32.226 38.6368 30.6366C41.8834 28.4905 46.5414 24.4497 43.7908 20.1979C41.4911 16.6376 37.036 17.8273 34.9348 20.8085C34.299 21.711 33.8075 22.7032 33.2438 23.6506C32.9868 24.0816 32.7298 24.5171 32.4277 24.9212C32.2112 25.1815 31.9948 25.4375 31.7784 25.6979C30.0694 26.075 29.1856 25.6215 29.127 24.3285C27.4135 20.7008 29.4877 16.9833 30.6511 13.6384C31.5168 11.151 31.8866 8.5021 31.7017 5.87559C31.5754 4.05724 31.3861 1.59685 29.6681 0.510334C28.1575 -0.445984 25.8353 0.101766 24.3518 0.847066C22.1423 1.96053 20.7895 4.32214 19.6712 6.42334C16.7989 11.8201 19.6983 16.5747 20.767 22.0118C20.9068 22.7346 21.263 24.3195 21.024 25.1232C20.2935 25.7876 19.563 26.4477 18.828 27.1122C18.4087 26.5779 18.093 25.9942 17.8721 25.3521C17.4482 24.4138 17.0018 23.5383 16.3841 22.7032C15.4101 21.3832 13.5703 19.2147 11.69 19.3224C9.86378 19.4302 8.7906 21.3518 8.59671 22.9546C8.30812 25.3252 9.58421 27.853 10.7386 29.8644C13.9401 35.4362 22.8637 37.488 21.9439 45.1834C21.8447 46.032 23.1974 46.0274 23.2966 45.1744Z" fill="#46A358"/>
<path d="M34.9843 22.7885C35.9583 17.8723 34.1186 13.378 33.7353 8.52458C33.5053 5.62419 34.7454 0.986277 38.6864 2.30626C41.6218 3.28952 42.7356 6.77357 42.5372 9.56171C42.3929 11.6001 41.4099 17.5804 45.3509 17.0237C48.7328 16.5478 50.4778 10.9356 52.1192 8.556C53.526 6.51766 56.6328 3.54095 59.3654 4.37155C63.6942 5.68705 60.9211 10.8592 58.928 12.8931C55.5687 16.3188 51.9884 19.3494 49.0259 23.1657C47.3079 25.3791 45.8199 29.0158 49.6301 30.008C51.0956 30.3897 52.507 29.8824 53.8281 29.2807C54.8923 28.7958 55.9069 28.2167 57.0387 27.8978C59.1039 27.3142 61.4982 27.7722 60.132 30.3268C56.935 36.3116 49.6166 31.8982 44.8955 34.408C40.8913 36.5406 39.9579 41.2549 40.3367 45.3899C40.4134 46.2475 41.7706 46.2565 41.6895 45.3899C41.4234 42.5076 41.6534 39.3916 43.6555 37.1064C46.2437 34.1521 49.6977 35.2296 53.1247 35.1623C56.6238 35.095 61.1285 33.4068 61.8545 29.5141C62.6481 25.2489 57.7692 26.075 55.2666 27.1032C54.1618 27.5567 53.1292 28.2615 51.9749 28.5938C51.0595 28.8586 49.6121 29.0024 48.8906 28.1448C48.1917 27.3097 48.7553 25.9044 49.1882 25.1951C50.7709 22.591 53.1969 20.2159 55.3522 18.0743C58.3238 15.12 63.3921 11.9862 62.9547 7.16867C62.621 3.48258 59.2031 2.13116 56.0512 3.51401C54.1573 4.34461 52.5926 5.6646 51.3571 7.31234C49.7428 9.46293 48.8816 12.4172 46.9562 14.3119C46.2618 14.9943 45.5809 16.4445 44.0297 15.0212C43.3398 14.3882 43.5472 12.7001 43.6194 11.8335C43.7141 10.6976 43.9576 9.58865 43.9215 8.44376C43.8629 6.50868 43.2181 4.54666 41.96 3.04708C39.2996 -0.113713 34.7318 0.0254693 32.9642 3.98992C31.9091 6.36051 32.3735 9.07232 32.8154 11.5327C33.4648 15.165 34.4162 18.7298 33.6812 22.4294C33.5144 23.2779 34.8175 23.6416 34.9843 22.7885Z" fill="#46A358"/>
<path d="M34.6823 31.3056C34.0465 35.9345 33.0049 40.4691 31.5529 44.914C31.2824 45.7401 32.59 46.0948 32.8561 45.2732C34.308 40.8284 35.3496 36.2937 35.9854 31.6647C36.1027 30.8117 34.7995 30.448 34.6823 31.3056Z" fill="#46A358"/>
<path d="M18.5033 44.4022C18.3275 40.8374 15.8429 38.4309 12.9841 36.5991C11.1308 35.4093 9.10172 34.4171 7.50998 32.868C6.82459 32.2036 5.54849 30.915 5.48086 29.8824C5.25089 26.4388 9.47598 29.1191 10.4139 29.9138C11.0722 30.4751 12.0327 29.5232 11.3698 28.962C9.89533 27.7094 7.24845 26.0795 5.22383 27.0225C3.59151 27.7812 3.86206 29.6624 4.48884 31.0183C7.1267 36.7787 16.8034 37.4387 17.1506 44.4022C17.1912 45.2643 18.5484 45.2688 18.5033 44.4022Z" fill="#46A358"/>
<path d="M48.8365 45.7356C50.523 43.2034 52.746 41.1336 55.4695 39.7418C57.9496 38.4757 61.0248 38.2557 63.2208 36.4643C65.7414 34.4079 65.8722 29.366 61.7012 29.4962C60.8309 29.5231 60.8309 30.87 61.7012 30.8431C63.347 31.0675 64.0144 31.9745 63.7123 33.5594C63.3741 34.4708 62.8014 35.1891 61.9943 35.71C61.0068 36.4059 59.8073 36.7246 58.671 37.0838C57.2236 37.5418 55.8122 38.0222 54.473 38.7406C51.6863 40.2401 49.4092 42.4401 47.6642 45.0576C47.1817 45.7805 48.3541 46.454 48.8365 45.7356Z" fill="#46A358"/>
<path d="M52.5115 33.8871C46.7803 34.9647 44.6655 40.6442 43.3083 45.6143C43.0783 46.454 44.386 46.8087 44.6114 45.9735C45.8469 41.4523 47.6281 36.1724 52.8722 35.1891C53.7245 35.023 53.3637 33.7255 52.5115 33.8871Z" fill="#46A358"/>
<path d="M22.2911 13.387C21.6192 10.6976 22.4579 7.75237 24.6313 5.94748C25.0687 5.56585 25.5647 5.27402 26.1103 5.07198C27.6119 5.39075 28.3108 6.18993 28.2071 7.46951C28.2342 8.2148 28.0899 8.95113 27.914 9.66949C27.5578 11.1197 26.931 12.4981 26.4666 13.9168C25.2716 17.5715 23.5536 23.5474 26.7822 26.6587C27.0933 26.9596 27.5758 26.4836 27.2602 26.1828C24.4284 23.4575 25.8804 18.218 26.8498 14.9539C27.6885 12.1254 29.9657 8.36746 28.4281 5.39524C27.2286 3.07852 24.478 4.95974 23.3101 6.31564C21.5831 8.32256 21.0015 11.0209 21.6372 13.5666C21.7455 13.9886 22.3948 13.8091 22.2911 13.387Z" fill="#46A358"/>
<path d="M36.5851 24.2925C36.9729 23.4349 37.7575 22.2227 38.8081 22.0791C40.4089 21.859 41.2341 23.8615 40.3773 25.186C39.5702 26.4341 38.0326 27.3052 36.7069 27.8395C34.5019 28.7239 33.0229 29.9451 31.4221 31.6917C31.129 32.0105 31.607 32.4908 31.9001 32.1676C32.8696 31.1035 33.8616 29.999 35.1242 29.2626C36.1297 28.6745 37.2976 28.4456 38.3076 27.8709C39.5386 27.166 41.5317 25.6439 41.676 24.1084C41.7932 22.8692 40.4811 21.4325 39.2546 21.3563C37.7756 21.2619 36.54 22.7705 36.0034 23.9558C35.8231 24.3419 36.4093 24.6877 36.5851 24.2925Z" fill="#46A358"/>
<path d="M11.2977 25.0738C11.4465 23.893 11.8929 23.4575 12.6324 23.7762C12.8939 23.7808 13.1104 23.875 13.2907 24.0591C13.647 24.2927 13.8814 24.6383 14.0934 25.002C14.4722 25.653 14.648 26.4117 14.9276 27.1032C15.2838 27.9922 15.7528 28.715 16.5599 29.2448C16.9251 29.4873 17.2633 28.9036 16.9026 28.6611C14.9186 27.3501 15.4732 23.9469 12.9931 23.1207C11.5051 22.6269 10.0081 23.911 10.716 25.4105C10.9009 25.8056 11.4825 25.4645 11.2977 25.0738Z" fill="#46A358"/>
<path d="M35.53 7.64915C35.1783 5.70958 37.2299 4.16509 38.7991 5.57937C39.6649 6.36059 39.9986 7.79731 40.0031 8.91975C40.0121 10.4418 39.3132 11.8022 39.6108 13.3287C39.6919 13.7552 40.3458 13.5756 40.2646 13.1491C39.8903 11.2319 40.9635 9.39566 40.481 7.4067C40.1925 6.21692 39.6063 4.89244 38.3707 4.44346C36.1432 3.63979 34.5064 5.7859 34.8761 7.82425C34.9573 8.25078 35.6066 8.07119 35.53 7.64915Z" fill="#46A358"/>
<path d="M35.1918 12.0893C36.292 14.3926 36.8331 16.413 36.752 18.9676C36.7384 19.4031 37.4148 19.3987 37.4283 18.9676C37.514 16.2827 36.9278 14.1591 35.778 11.7526C35.5886 11.362 35.0069 11.7032 35.1918 12.0893Z" fill="#46A358"/>
<path d="M52.7324 10.1632C53.3862 8.67719 54.6217 7.73883 56.0512 7.03394C56.4615 6.81842 56.8853 6.64333 57.3272 6.50414C59.2346 7.15067 59.7171 8.04413 58.7747 9.19351C58.3238 9.8984 57.6699 10.5315 57.1063 11.151C54.9599 13.5082 52.6422 15.6902 50.1937 17.7286C49.8601 18.0069 50.338 18.4828 50.6717 18.2045C52.8857 16.3636 54.9915 14.4062 56.9575 12.305C58.1389 11.0433 60.407 9.17106 59.911 7.17761C58.9235 3.22662 52.9759 7.93637 52.1462 9.82657C51.9749 10.2172 52.5611 10.5584 52.7324 10.1632Z" fill="#46A358"/>
<path d="M48.9132 20.1755C46.7533 21.7558 45.4411 24.0591 45.1931 26.7126C45.1525 27.1436 45.8289 27.1391 45.8695 26.7126C46.095 24.3151 47.3034 22.1823 49.2559 20.7546C49.6031 20.5032 49.2649 19.9151 48.9132 20.1755Z" fill="#46A358"/>
<path d="M53.1924 31.4089C53.6343 31.144 54.0762 30.8656 54.5406 30.6367C54.8923 30.4436 55.2621 30.2954 55.6499 30.1922C56.3759 29.8914 56.6194 30.4525 56.3759 31.8758C55.8979 32.8142 53.3096 32.8501 52.507 32.8007C50.5004 32.6839 48.6111 32.1362 46.6315 32.7423C46.2167 32.8681 46.3926 33.5191 46.8119 33.3934C49.1882 32.6615 51.5014 33.7256 53.9003 33.4607C55.2035 33.3126 57.0477 32.7154 57.697 31.4583C58.0578 30.7579 57.9721 29.833 57.183 29.4513C55.8889 28.8272 53.8688 30.2101 52.8497 30.8252C52.4799 31.0542 52.8181 31.6379 53.1924 31.4089Z" fill="#46A358"/>
<path d="M43.1369 33.914C39.6198 36.7561 38.3391 41.0662 37.9829 45.4123C37.9469 45.8433 38.6232 45.8433 38.6593 45.4123C39.002 41.2324 40.233 37.1198 43.6149 34.3899C43.9531 34.1161 43.4706 33.6446 43.1369 33.914Z" fill="#46A358"/>
<path d="M27.9996 35.059C26.9535 36.8639 26.9851 38.8304 27.215 40.8508C27.4089 42.548 27.6299 44.2137 28.8068 45.5337C29.0954 45.8569 29.5733 45.3809 29.2847 45.0577C28.1304 43.7646 27.9861 41.9688 27.8328 40.3165C27.6705 38.597 27.693 36.9313 28.5858 35.3958C28.8023 35.0231 28.2206 34.6864 27.9996 35.059Z" fill="#46A358"/>
<path d="M9.34071 30.6231C7.38373 30.6501 8.1593 32.7019 9.20543 33.4382C10.5131 34.3586 12.0011 34.9737 13.3899 35.7505C15.0268 36.6664 15.6851 38.2109 16.9432 39.4994C17.2453 39.8092 17.7233 39.3333 17.4212 39.0235C16.1721 37.7439 15.5679 36.2129 13.9581 35.297C13.1464 34.8345 12.2942 34.444 11.4781 33.9995C11.0542 33.7705 10.6303 33.5415 10.2245 33.2856C10.0622 33.1868 9.89533 33.0836 9.733 32.9848C8.92586 32.6795 8.7996 32.1182 9.34521 31.3011C9.77358 31.2922 9.77359 30.6187 9.34071 30.6231Z" fill="#46A358"/>
<path d="M60.2357 33.7255C60.2582 34.6235 59.8434 35.1129 58.9822 35.1982C58.5673 35.3643 58.157 35.526 57.7421 35.692C57.1244 35.939 56.5021 36.1859 55.8844 36.4328C54.4414 37.0075 52.994 37.5868 51.551 38.1615C51.1497 38.3185 51.3256 38.9741 51.7314 38.8124C53.3818 38.1525 55.0321 37.497 56.6825 36.8369C57.9045 36.3476 59.4646 35.9973 60.5513 35.2341C61.4938 34.5696 61.5208 33.1912 60.2312 33.0521C59.8028 33.0027 59.8073 33.6807 60.2357 33.7255Z" fill="#46A358"/>
<path d="M49.9999 39.0953C48.1872 40.8014 46.7578 42.8038 45.7477 45.0756C45.5719 45.4663 46.1535 45.812 46.3339 45.4169C47.3214 43.1989 48.7057 41.2413 50.4823 39.5757C50.7935 39.2749 50.3155 38.799 49.9999 39.0953Z" fill="#46A358"/>
<path d="M18.5485 42.0406C19.067 42.8038 19.4007 43.6254 19.5585 44.5323C19.6307 44.9589 20.2845 44.7793 20.2124 44.3528C20.0455 43.3964 19.6803 42.5029 19.1347 41.6993C18.8912 41.3446 18.305 41.6813 18.5485 42.0406Z" fill="#46A358"/>
<defs>
<clipPath id="clip0_0_1">
<rect width="55" height="48" fill="white" transform="translate(4 45.79)"/>
</clipPath>
</defs>
</svg>
