<svg width="20" height="20" viewBox="0 0 20 20" fill="none" xmlns="http://www.w3.org/2000/svg">
<path fill-rule="evenodd" clip-rule="evenodd" d="M10.2088 7.08398C9.40466 7.08398 8.75049 7.73815 8.75049 8.54315C8.75049 9.34732 9.40466 10.0007 10.2088 10.0007C11.013 10.0007 11.6672 9.34732 11.6672 8.54315C11.6672 7.73815 11.013 7.08398 10.2088 7.08398ZM10.2088 11.2507C8.71549 11.2507 7.50049 10.0365 7.50049 8.54315C7.50049 7.04898 8.71549 5.83398 10.2088 5.83398C11.7022 5.83398 12.9172 7.04898 12.9172 8.54315C12.9172 10.0365 11.7022 11.2507 10.2088 11.2507Z" fill="#727272"/>
<mask id="mask0_42096_3149" style="mask-type:luminance" maskUnits="userSpaceOnUse" x="3" y="1" width="15" height="17">
<path fill-rule="evenodd" clip-rule="evenodd" d="M3.3335 1.66699H17.0831V17.917H3.3335V1.66699Z" fill="white"/>
</mask>
<g mask="url(#mask0_42096_3149)">
<path fill-rule="evenodd" clip-rule="evenodd" d="M10.208 2.91699C7.10634 2.91699 4.58301 5.46449 4.58301 8.59449C4.58301 12.577 9.26967 16.457 10.208 16.6637C11.1463 16.4562 15.833 12.5762 15.833 8.59449C15.833 5.46449 13.3097 2.91699 10.208 2.91699ZM10.208 17.917C8.71301 17.917 3.33301 13.2903 3.33301 8.59449C3.33301 4.77449 6.41717 1.66699 10.208 1.66699C13.9988 1.66699 17.083 4.77449 17.083 8.59449C17.083 13.2903 11.703 17.917 10.208 17.917Z" fill="#727272"/>
</g>
</svg>
