<svg width="80" height="80" viewBox="0 0 80 80" fill="none" xmlns="http://www.w3.org/2000/svg">
<g clip-path="url(#clip0_42070_11794)">
<path d="M36.6982 25.9313C37.3023 26.1619 37.9799 25.8583 38.2104 25.2532L38.6033 24.2213H41.3758L41.764 25.2499C41.941 25.7191 42.3869 26.0083 42.8605 26.0083C42.998 26.0083 43.1379 25.984 43.2741 25.9325C43.8796 25.7041 44.1852 25.028 43.9566 24.4224L41.2491 17.2479C41.2452 17.2374 41.241 17.2266 41.2368 17.2163C41.0299 16.7129 40.5446 16.3877 40.0004 16.3877C40.0001 16.3877 39.9998 16.3877 39.9994 16.3877C39.4548 16.388 38.9694 16.7139 38.7632 17.2179C38.7596 17.2269 38.7558 17.2357 38.7526 17.2449L36.0202 24.4191C35.7898 25.0238 36.0934 25.7008 36.6982 25.9313ZM40.4913 21.8777H39.496L39.9958 20.5652L40.4913 21.8777Z" fill="#46A358"/>
<path d="M46.3298 26.0082C46.9772 26.0082 47.5017 25.4836 47.5017 24.8363V21.3324L50.2766 25.3505C50.6103 25.833 51.1714 26.0374 51.7061 25.8705C52.2497 25.701 52.6008 25.1986 52.6008 24.5797L52.5328 17.5483C52.5266 16.905 52.0031 16.3877 51.3612 16.3877C51.3573 16.3877 51.3534 16.3877 51.3497 16.3877C50.7023 16.3939 50.1828 16.9238 50.1891 17.5708L50.2237 21.1494L47.2942 16.9072C47.0028 16.4852 46.4712 16.3021 45.9811 16.4544C45.4916 16.6071 45.158 17.0604 45.158 17.5732V24.8361C45.158 25.4836 45.6825 26.0082 46.3298 26.0082Z" fill="#46A358"/>
<path d="M55.248 26.008C55.8953 26.008 56.4198 25.4835 56.4198 24.8361V23.5694L58.607 25.6796C58.8344 25.8989 59.1277 26.0082 59.4205 26.0082C59.7275 26.0082 60.0341 25.8882 60.2639 25.6499C60.7133 25.1843 60.7 24.4422 60.2342 23.993L57.1902 21.056L59.9553 18.5141C60.4319 18.0761 60.4631 17.3347 60.025 16.8583C59.5872 16.3818 58.8456 16.3507 58.3692 16.7886L56.4197 18.5805V17.5596C56.4197 16.9122 55.8952 16.3877 55.2478 16.3877C54.6005 16.3877 54.0759 16.9122 54.0759 17.5596V24.8361C54.0761 25.4835 54.6006 26.008 55.248 26.008Z" fill="#46A358"/>
<path d="M28.408 26.008C29.0553 26.008 29.5798 25.4835 29.5798 24.8361V22.2449H32.2717V24.8361C32.2717 25.4835 32.7962 26.008 33.4436 26.008C34.0909 26.008 34.6155 25.4835 34.6155 24.8361V17.5596C34.6155 16.9122 34.0909 16.3877 33.4436 16.3877C32.7962 16.3877 32.2717 16.9122 32.2717 17.5596V19.9011H29.5798V17.5596C29.5798 16.9122 29.0553 16.3877 28.408 16.3877C27.7606 16.3877 27.2361 16.9122 27.2361 17.5596V24.8361C27.2361 25.4835 27.7606 26.008 28.408 26.008Z" fill="#46A358"/>
<path d="M25.6511 31.6397L27.7839 34.9058L27.7756 38.2727C27.7741 38.9201 28.2975 39.446 28.9445 39.4476H28.9475C29.5935 39.4476 30.1178 38.9248 30.1194 38.2787L30.1277 34.9077L32.2438 31.6568C32.5969 31.1143 32.4435 30.3883 31.9011 30.0354C31.3588 29.6819 30.6327 29.8357 30.2797 30.378L28.955 32.4129L27.6133 30.3583C27.2594 29.8163 26.5336 29.6643 25.9914 30.0179C25.4497 30.3718 25.297 31.0979 25.6511 31.6397Z" fill="#46A358"/>
<path d="M43.7277 36.0062C43.7277 37.1995 44.2938 38.1661 45.4104 38.8796C45.9988 39.2554 46.6618 39.4465 47.381 39.4476H47.3864C48.0038 39.4476 48.5843 39.3131 49.1118 39.0473C50.4118 38.3926 51.1277 37.3107 51.1277 36.0009V30.999C51.1277 30.3517 50.6032 29.8271 49.9558 29.8271C49.3085 29.8271 48.7839 30.3517 48.7839 30.999V36.0009C48.7839 36.3059 48.696 36.6325 48.0575 36.954C47.8574 37.055 47.6379 37.1039 47.3866 37.1039C47.3858 37.1039 47.3849 37.1039 47.3841 37.1039C47.1143 37.1036 46.8813 37.0382 46.6721 36.9046C46.1172 36.5501 46.0713 36.2775 46.0713 36.0064V30.9992C46.0713 30.3518 45.5468 29.8273 44.8994 29.8273C44.2521 29.8273 43.7275 30.3518 43.7275 30.9992V36.0062H43.7277Z" fill="#46A358"/>
<path d="M20.7625 18.7314H21.5918V24.8361C21.5918 25.4835 22.1164 26.008 22.7637 26.008C23.4111 26.008 23.9356 25.4835 23.9356 24.8361V18.7314H24.7811C25.4284 18.7314 25.9529 18.2069 25.9529 17.5596C25.9529 16.9122 25.4284 16.3877 24.7811 16.3877H20.7625C20.1151 16.3877 19.5906 16.9122 19.5906 17.5596C19.5906 18.2069 20.1151 18.7314 20.7625 18.7314Z" fill="#46A358"/>
<path d="M37.6305 29.8271C34.9781 29.8271 32.8203 31.9851 32.8203 34.6373C32.8203 37.2895 34.9783 39.4475 37.6305 39.4475C40.283 39.4475 42.4408 37.2895 42.4408 34.6373C42.4408 31.9851 40.2828 29.8271 37.6305 29.8271ZM37.6305 37.1037C36.2705 37.1037 35.1641 35.9973 35.1641 34.6373C35.1641 33.2773 36.2705 32.1709 37.6305 32.1709C38.9905 32.1709 40.097 33.2773 40.097 34.6373C40.097 35.9973 38.9905 37.1037 37.6305 37.1037Z" fill="#46A358"/>
<path d="M70.7969 28.0734L67.347 24.4797V9.46422C67.347 7.37484 65.6472 5.67484 63.5577 5.67484H49.2933C49.2897 5.67109 49.2867 5.66687 49.2831 5.66313L46.5102 2.77469C44.7923 0.985469 42.4803 0 40 0C37.5197 0 35.2077 0.985469 33.49 2.77469L30.7056 5.675H16.4423C14.3528 5.675 12.653 7.375 12.653 9.46437V24.48L9.20313 28.0734C8.05203 29.2725 7.41797 30.8483 7.41797 32.5103V76.2106C7.41797 78.3002 9.11797 80 11.2073 80H68.7925C70.8819 80 72.5819 78.3002 72.5819 76.2106V32.5103C72.5819 30.8483 71.948 29.2725 70.7969 28.0734ZM69.1061 29.6967C69.8361 30.457 70.2381 31.4564 70.2381 32.5105V35.168L67.3469 38.1797V27.8641L69.1061 29.6967ZM35.1806 4.39781C36.4523 3.07328 38.1637 2.34375 40 2.34375C41.8363 2.34375 43.5477 3.07328 44.8194 4.39781L46.0453 5.67484H33.9547L35.1806 4.39781ZM16.4423 8.01859H63.5575C64.3547 8.01859 65.0031 8.66703 65.0031 9.46422V40.6209L52.5639 53.5784L46.5098 47.2722C44.7922 45.483 42.4802 44.4975 39.9998 44.4975C37.5195 44.4975 35.2075 45.483 33.4898 47.2722L27.4358 53.5784L14.9966 40.6209V9.46422C14.9967 8.66719 15.6453 8.01859 16.4423 8.01859ZM25.8116 55.2706L9.76188 71.9891V38.5522L25.8116 55.2706ZM9.76188 32.5103C9.76188 31.4562 10.1639 30.4569 10.8939 29.6966L12.6531 27.8641V38.1794L9.76188 35.1677V32.5103ZM68.7925 77.6562H11.2075C10.4103 77.6562 9.76188 77.0078 9.76188 76.2106V75.3733L35.1808 48.8953C36.4525 47.5706 38.1639 46.8412 40.0002 46.8412C41.8364 46.8412 43.5478 47.5708 44.8195 48.8953L54.2317 58.6997C54.68 59.1667 55.4217 59.1814 55.8886 58.7334C56.3553 58.2853 56.3706 57.5434 55.9223 57.0766L54.1886 55.2706L70.2383 38.5522V71.9891L59.6914 61.0028C59.2431 60.5359 58.5014 60.5209 58.0345 60.9691C57.5678 61.4172 57.5525 62.1591 58.0008 62.6259L70.2383 75.3733V76.2105C70.2381 77.0078 69.5897 77.6562 68.7925 77.6562Z" fill="#46A358"/>
</g>
<defs>
<clipPath id="clip0_42070_11794">
<rect width="80" height="80" fill="white"/>
</clipPath>
</defs>
</svg>
